<svg xmlns="http://www.w3.org/2000/svg" viewBox="0 0 128 128" width="128" height="128">
  <!-- Board background -->
  <defs>
    <linearGradient id="bg" x1="0" y1="0" x2="1" y2="1">
      <stop offset="0%" stop-color="#0f172a"/>
      <stop offset="100%" stop-color="#1f1f1f"/>
    </linearGradient>
    <!-- Game theme pegs: red for occupied, green for focused -->
    <linearGradient id="pegRed" x1="0" y1="0" x2="0" y2="1">
      <stop offset="0%" stop-color="#ffd6d6"/>
      <stop offset="100%" stop-color="#ff7a7a"/>
    </linearGradient>
    <linearGradient id="pegGreen" x1="0" y1="0" x2="0" y2="1">
      <stop offset="0%" stop-color="#d8ffd8"/>
      <stop offset="100%" stop-color="#69da69"/>
    </linearGradient>
    <filter id="shadow" x="-50%" y="-50%" width="200%" height="200%">
      <feDropShadow dx="0" dy="2" stdDeviation="2" flood-color="#000" flood-opacity="0.35"/>
    </filter>
  </defs>

  <rect x="0" y="0" width="128" height="128" rx="18" fill="url(#bg)"/>

  <!-- Grid (subtle) -->
  <g stroke="#ffffff" stroke-opacity="0.08">
    <path d="M16 32 H112 M16 64 H112 M16 96 H112"/>
    <path d="M32 16 V112 M64 16 V112 M96 16 V112"/>
  </g>

  <!-- Pegs to depict a jump (source -> target over middle) -->
  <!-- Middle peg (to be captured) in red -->
  <circle cx="64" cy="64" r="10" fill="url(#pegRed)" filter="url(#shadow)"/>
  <!-- Source peg (focused) in green -->
  <circle cx="32" cy="64" r="10" fill="url(#pegGreen)" filter="url(#shadow)"/>
  <!-- Target cell highlight in green tint -->
  <circle cx="96" cy="64" r="11" fill="#a8f0a8" opacity="0.35"/>
  <!-- Target peg (post-move) as outline in green -->
  <circle cx="96" cy="64" r="10" fill="none" stroke="#7ae27a" stroke-width="2"/>

  <!-- Motion arc -->
  <path d="M36 60 C 60 40, 68 40, 92 60" fill="none" stroke="#8be78b" stroke-width="2" stroke-linecap="round" stroke-dasharray="4 4"/>

  <!-- Corner cutouts to suggest default layout -->
  <g fill="#ffffff" opacity="0.12">
    <rect x="16" y="16" width="16" height="16" rx="3"/>
    <rect x="96" y="16" width="16" height="16" rx="3"/>
    <rect x="16" y="96" width="16" height="16" rx="3"/>
    <rect x="96" y="96" width="16" height="16" rx="3"/>
  </g>
</svg>


